<?xml version="1.0" encoding="UTF-8" standalone="no"?>
<!-- Created with Inkscape (http://www.inkscape.org/) -->

<svg
   width="512"
   height="512"
   viewBox="0 0 512 512"
   version="1.1"
   id="svg1"
   xml:space="preserve"
   inkscape:version="1.4 (86a8ad7, 2024-10-11)"
   sodipodi:docname="offshoresync_logo_bg.svg"
   inkscape:export-filename="offshoresync_logo_bg.png"
   inkscape:export-xdpi="96"
   inkscape:export-ydpi="96"
   xmlns:inkscape="http://www.inkscape.org/namespaces/inkscape"
   xmlns:sodipodi="http://sodipodi.sourceforge.net/DTD/sodipodi-0.dtd"
   xmlns="http://www.w3.org/2000/svg"
   xmlns:svg="http://www.w3.org/2000/svg"><sodipodi:namedview
     id="namedview1"
     pagecolor="#ffffff"
     bordercolor="#000000"
     borderopacity="0.25"
     inkscape:showpageshadow="2"
     inkscape:pageopacity="0.0"
     inkscape:pagecheckerboard="0"
     inkscape:deskcolor="#d1d1d1"
     inkscape:document-units="px"
     inkscape:zoom="0.71"
     inkscape:cx="259.85915"
     inkscape:cy="251.40845"
     inkscape:window-width="1920"
     inkscape:window-height="1051"
     inkscape:window-x="-9"
     inkscape:window-y="-9"
     inkscape:window-maximized="1"
     inkscape:current-layer="layer3"
     showguides="false" /><defs
     id="defs1" /><g
     inkscape:groupmode="layer"
     id="layer3"
     inkscape:label="Camada 3"><rect
       style="display:inline;fill:#35baf6;fill-opacity:1;stroke-width:0.985149"
       id="rect4"
       width="512"
       height="512"
       x="0"
       y="0" /><path
       style="fill:#ffffff;fill-opacity:1;stroke:none;stroke-width:0.658647"
       d="m 406.71755,157.84044 c -2.18606,10.53419 -5.23241,20.53324 -9.44707,30.35164 -7.77149,18.10426 -23.30438,32.78501 -42.16076,34.27194 -11.97301,0.94415 -24.03005,-2.88011 -34.77939,-8.1051 -13.79399,-6.70492 -25.79417,-16.33419 -38.49331,-24.99337 -31.84863,-21.71672 -83.45033,-40.71558 -116.9588,-11.65031 l -0.48145,-0.29701 c 9.08455,-11.41485 17.59405,-22.73929 29.29063,-31.32923 8.72438,-6.40718 17.84196,-11.33481 27.89685,-14.76758 26.44353,-9.02798 54.60475,1.54775 76.48786,17.30402 18.96893,13.658 35.23073,30.91221 59.56824,32.32416 12.59014,0.73046 25.55852,-3.11675 35.93707,-11.03841 4.42798,-3.37975 8.41093,-9.65128 13.14013,-12.07075 m -9.12786,83.42662 c -6.08509,29.32269 -21.7035,64.65507 -54.23464,64.7328 -7.45023,0.0178 -14.61747,-1.43113 -21.66601,-3.86066 -20.91061,-7.20768 -37.34084,-22.51324 -56.19174,-33.82092 -36.42956,-21.85217 -84.3916,-36.1532 -124.67217,-16.38415 l -0.48146,-0.29702 c 31.7128,-38.25869 88.08548,-54.31737 130.80071,-30.60107 25.53136,14.17548 45.93555,40.46992 76.13434,43.24741 12.9251,1.18876 26.51672,-2.81362 37.17086,-10.94565 4.42794,-3.37973 8.41093,-9.65129 13.14011,-12.07073 m 11.25007,73.03797 c -8.1931,14.8817 -20.52064,28.88578 -33.32336,39.2778 -9.10337,7.38925 -18.80794,13.63473 -29.47334,17.997 -7.23507,2.95922 -15.00922,5.02044 -22.68498,5.88437 -50.61325,5.69655 -86.39583,-35.39933 -127.68819,-58.32588 -21.02355,-11.67276 -44.90923,-21.31942 -69.0467,-20.72222 -10.10299,0.24997 -21.59812,1.87019 -30.14173,8.26161 L 96,306.3807 c 8.03258,-9.15608 19.81413,-15.79557 30.31246,-20.95812 32.26846,-15.868 70.22401,-14.72596 101.19762,3.30124 23.29219,13.55646 41.87909,33.71975 67.85733,41.93294 25.70586,8.1271 53.74686,7.52168 79.50946,-1.12442 11.82929,-3.96998 22.42138,-10.90485 33.96289,-15.2273 z"
       id="path4" /></g></svg>
