<?xml version="1.0" encoding="UTF-8" standalone="no"?>
<!-- Created with Inkscape (http://www.inkscape.org/) -->

<svg
   width="512"
   height="512"
   viewBox="0 0 512 512"
   version="1.1"
   id="svg1"
   xml:space="preserve"
   inkscape:version="1.4 (86a8ad7, 2024-10-11)"
   sodipodi:docname="offshoresync_logo_nobg.svg"
   inkscape:export-filename="offshoresync_logo_nobg.png"
   inkscape:export-xdpi="96"
   inkscape:export-ydpi="96"
   xmlns:inkscape="http://www.inkscape.org/namespaces/inkscape"
   xmlns:sodipodi="http://sodipodi.sourceforge.net/DTD/sodipodi-0.dtd"
   xmlns="http://www.w3.org/2000/svg"
   xmlns:svg="http://www.w3.org/2000/svg"><sodipodi:namedview
     id="namedview1"
     pagecolor="#ffffff"
     bordercolor="#000000"
     borderopacity="0.25"
     inkscape:showpageshadow="2"
     inkscape:pageopacity="0.0"
     inkscape:pagecheckerboard="0"
     inkscape:deskcolor="#d1d1d1"
     inkscape:document-units="px"
     inkscape:zoom="0.71"
     inkscape:cx="259.85915"
     inkscape:cy="251.40845"
     inkscape:window-width="1920"
     inkscape:window-height="1051"
     inkscape:window-x="-9"
     inkscape:window-y="-9"
     inkscape:window-maximized="1"
     inkscape:current-layer="layer3"
     showguides="false" /><defs
     id="defs1" /><g
     inkscape:groupmode="layer"
     id="layer3"
     inkscape:label="Camada 3"><path
       style="fill:#35baf6;stroke:none;stroke-width:1.01835;fill-opacity:1"
       d="m 495.53608,108.03092 c -3.37992,16.28715 -8.08996,31.74695 -14.60636,46.92743 -12.0157,27.99147 -36.03152,50.68977 -65.18585,52.98873 -18.51178,1.45977 -37.15346,-4.45303 -53.7733,-12.53151 -21.32724,-10.36664 -39.88104,-25.2547 -59.51548,-38.64288 -49.242,-33.57677 -129.02472,-62.951413 -180.83302,-18.01285 l -0.74439,-0.45923 c 14.04588,-17.64877 27.20262,-35.1578 45.287,-48.438923 13.48899,-9.90629 27.58591,-17.525024 43.13204,-22.832541 40.88503,-13.95838 84.42581,2.393023 118.25984,26.754201 29.32835,21.117003 54.47115,47.794153 92.09998,49.977223 19.46595,1.12937 39.51669,-4.81888 55.56326,-17.06677 6.84619,-5.22551 13.00433,-14.9221 20.31628,-18.66288 m -14.11283,128.98802 c -9.40831,45.33657 -33.55633,99.96488 -83.85356,100.08505 -11.51902,0.0275 -22.60045,-2.21271 -33.49839,-5.96908 C 331.74087,319.99094 306.33768,296.32663 277.1918,278.84354 220.86714,245.05732 146.71179,222.94615 84.432964,253.51159 l -0.744399,-0.45924 c 49.031985,-59.15275 136.191225,-83.98148 202.234345,-47.3131 39.4747,21.91707 71.02213,62.57159 117.71326,66.86593 19.98383,1.83797 40.99818,-4.35021 57.47082,-16.92335 6.84615,-5.22549 13.00435,-14.92212 20.31626,-18.66288 m 17.39403,112.92589 c -12.66758,23.00899 -31.7275,44.66104 -51.52211,60.72843 -14.07495,11.42471 -29.07945,21.081 -45.5695,27.82561 -11.18632,4.57533 -23.20613,7.76223 -35.07383,9.09797 -78.25443,8.80759 -133.5788,-54.73181 -197.42198,-90.17913 -32.50505,-18.04758 -69.435321,-32.96251 -106.754869,-32.03916 -15.620506,0.38649 -33.393415,2.89154 -46.60292,12.77349 l -0.744391,-0.45923 c 12.419378,-14.15645 30.635134,-24.42193 46.866881,-32.4039 49.891089,-24.53392 108.575149,-22.76817 156.464249,5.10413 36.01263,20.96 64.75033,52.13499 104.91595,64.8336 39.74449,12.56553 83.0994,11.62947 122.93164,-1.73849 18.28954,-6.13809 34.66625,-16.86027 52.51088,-23.54332 z"
       id="path4" /></g></svg>
