<svg xmlns="http://www.w3.org/2000/svg" viewBox="0 0 24 24" width="24" height="24" fill="#1976d2">
  <path d="M17 16.99c-1.35 0-2.2.42-2.95.8-.65.33-1.25.63-2.05.63-.81 0-1.4-.3-2.05-.63-.75-.38-1.6-.8-2.95-.8s-2.2.42-2.95.8c-.65.33-1.25.63-2.05.63V19c1.35 0 2.2-.42 2.95-.8.65-.33 1.25-.63 2.05-.63.81 0 1.4.3 2.05.63.75.38 1.6.8 2.95.8s2.2-.42 2.95-.8c.65-.33 1.25-.63 2.05-.63.81 0 1.4.3 2.05.63.75.38 1.6.8 2.95.8v-1.38c-.81 0-1.4-.3-2.05-.63-.75-.38-1.6-.8-2.95-.8zM17 12.54c-1.35 0-2.2.43-2.95.8-.65.32-1.25.62-2.05.62-.81 0-1.4-.3-2.05-.63-.75-.38-1.6-.8-2.95-.8s-2.2.42-2.95.8c-.65.33-1.25.63-2.05.63V14c1.35 0 2.2-.42 2.95-.8.65-.33 1.25-.63 2.05-.63.81 0 1.4.3 2.05.63.75.38 1.6.8 2.95.8s2.2-.42 2.95-.8c.65-.33 1.25-.63 2.05-.63.81 0 1.4.3 2.05.63.75.38 1.6.8 2.95.8v-1.38c-.81 0-1.4-.3-2.05-.63-.75-.38-1.6-.8-2.95-.8zM17 8.16c-1.35 0-2.2.43-2.95.8-.65.33-1.25.63-2.05.63-.81 0-1.4-.3-2.05-.63-.75-.38-1.6-.8-2.95-.8s-2.2.42-2.95.8c-.65.33-1.25.63-2.05.63v1.38c1.35 0 2.2-.42 2.95-.8.65-.33 1.25-.63 2.05-.63.81 0 1.4.3 2.05.63.75.38 1.6.8 2.95.8s2.2-.42 2.95-.8c.65-.33 1.25-.63 2.05-.63.81 0 1.4.3 2.05.63.75.38 1.6.8 2.95.8V9.59c-.81 0-1.4-.3-2.05-.63-.75-.38-1.6-.8-2.95-.8z"/>
</svg>
